inDegrees=no
num_controls=7
num_derivatives=13
num_iterations=37
num_multipliers=7
num_parameters=0
num_slacks=7
num_states=26
objective=0.386007
objective_accelerations=0.060442
objective_balance=0.001953
objective_effort=0.020291
objective_height=0.296796
objective_ligament=0.006525
solver_duration=563.049740
status=Solve_Succeeded
success=true
DataType=double
version=3
OpenSimVersion=4.5
endheader
time	/jointset/ground_pelvis/pelvis_tilt/value	/jointset/ground_pelvis/pelvis_tx/value	/jointset/ground_pelvis/pelvis_ty/value	/jointset/hip_l/hip_flexion_l/value	/jointset/hip_l/hip_adduction_l/value	/jointset/hip_l/hip_rotation_l/value	/jointset/back/lumbar_extension/value	/jointset/patellofemoral_l/patellar_flexion_l/value	/jointset/knee_l/knee_flexion_l/value	/jointset/knee_l/knee_adduction_l/value	/jointset/knee_l/knee_rotation_l/value	/jointset/ankle_l/ankle_angle_l/value	/jointset/subtalar_l/subtalar_angle_l/value	/jointset/ground_pelvis/pelvis_tilt/speed	/jointset/ground_pelvis/pelvis_tx/speed	/jointset/ground_pelvis/pelvis_ty/speed	/jointset/hip_l/hip_flexion_l/speed	/jointset/hip_l/hip_adduction_l/speed	/jointset/hip_l/hip_rotation_l/speed	/jointset/back/lumbar_extension/speed	/jointset/patellofemoral_l/patellar_flexion_l/speed	/jointset/knee_l/knee_flexion_l/speed	/jointset/knee_l/knee_adduction_l/speed	/jointset/knee_l/knee_rotation_l/speed	/jointset/ankle_l/ankle_angle_l/speed	/jointset/subtalar_l/subtalar_angle_l/speed	/forceset/tau_hip_flexion_l	/forceset/tau_hip_adduction_l	/forceset/tau_hip_rotation_l	/forceset/tau_knee_flexion_l	/forceset/tau_ankle_angle_l	/forceset/tau_subtalar_angle_l	/forceset/tau_lumbar_extension	lambda_cid13_p0	lambda_cid13_p1	lambda_cid13_p2	lambda_cid13_p3	lambda_cid13_p4	lambda_cid13_p5	lambda_cid14_p0	/jointset/ground_pelvis/pelvis_tilt/accel	/jointset/ground_pelvis/pelvis_tx/accel	/jointset/ground_pelvis/pelvis_ty/accel	/jointset/hip_l/hip_flexion_l/accel	/jointset/hip_l/hip_adduction_l/accel	/jointset/hip_l/hip_rotation_l/accel	/jointset/back/lumbar_extension/accel	/jointset/patellofemoral_l/patellar_flexion_l/accel	/jointset/knee_l/knee_flexion_l/accel	/jointset/knee_l/knee_adduction_l/accel	/jointset/knee_l/knee_rotation_l/accel	/jointset/ankle_l/ankle_angle_l/accel	/jointset/subtalar_l/subtalar_angle_l/accel	gamma_cid13_p0	gamma_cid13_p1	gamma_cid13_p2	gamma_cid13_p3	gamma_cid13_p4	gamma_cid13_p5	gamma_cid14_p0
0	0.05129772136804949	0.1064388236095285	0.9037087243709023	0.1266922784136757	-0.3630390463743736	-0.2243309613342908	-0.2144969558742783	0.2051545070141918	0.2051545070141877	-0.1603244786770531	-0.1562315490474942	0.09024313228550125	0.08660963909908821	0	0	0	0	0	0	0	0	0	0	0	0	0	0.1155982052234912	-0.03507831031276312	-0.006087202974564347	-0.2291294543312684	0.1598457443915927	-0.0971092459252433	-0.05470140092339033	20.43143034127986	39.50179110983061	-7.611993682297459	-8.540002587957805	-422.5358599954932	-31.98651662042272	-26.00407507915298	-3.845818066557445	-1.884023489397245	-1.308256708998436	17.14094548820772	-0.3033213594723027	5.017634397688306	-5.232065391083347	17.57213195011023	17.57213195011007	3.702128419565738	-1.655674809401803	5.828289416555042	1.395956396745697	7.644242937905573e-08	1.876244828243077e-06	-5.996757288463708e-07	4.982482804768927e-08	1.126048397492736e-06	1.194752305789663e-06	2.000760307776632e-07
0.01	0.05111065740984066	0.1063457022257625	0.9036458773654416	0.1275225725923441	-0.36305071465059	-0.2240753334467186	-0.2147587360750082	0.2059972332081737	0.2059972332081747	-0.1601420485026285	-0.1562954701103406	0.09052027153589352	0.08667879809717462	-0.03789511699928033	-0.01855531185066983	-0.01247850170698227	0.1651017842184195	-0.002121234092531384	0.05051520703066707	-0.05131308382451342	0.1661119274289629	0.1661119274289581	0.03627690873815787	-0.0123869899502166	0.05429178482503613	0.01372535986179142	0.1131921382479631	-0.04148721440979313	-0.005584440692784199	-0.2268878076246658	0.152076410457225	-0.08834667551318462	-0.05211676843450622	18.19772317686916	35.8407409895781	-6.746674279701236	-6.67937896846063	-426.729415286229	-39.80471020605495	-26.00465535832561	-3.833739552413188	-1.830930333455996	-1.203786784080422	16.05121898602984	-0.1348488763123813	4.977058878269938	-4.924486430490846	15.76568641890702	15.76568641890637	3.559345978348732	-0.970768574923862	5.05926099101096	1.344635110126138	1.232955193961922e-08	2.007823770903283e-06	-4.531739294437171e-07	1.696367984731888e-07	1.72942813556676e-07	9.333142248312969e-07	2.485170217703058e-07
0.02	0.05053016607446768	0.1060690986633777	0.9034610173664003	0.1299751694326783	-0.3630772601561833	-0.223332834484388	-0.2155023584244617	0.2084280713323911	0.2084280713324054	-0.1596030744656264	-0.1564713725700454	0.09130625622960725	0.08688197255972291	-0.07868547543053504	-0.03669643572377448	-0.02440259871607952	0.324460532331623	-0.002975445871887038	0.09737421496193344	-0.09636842974325247	0.3176223860426403	0.3176223860426371	0.07130877257271059	-0.0223962793841106	0.1017690886713969	0.02680309289281604	0.1107860712727411	-0.04789611850641751	-0.005081678411416221	-0.2246461609178274	0.1443070765230393	-0.07958410510062472	-0.04953213594550939	16.04067241989742	32.18883240918951	-5.908592530789966	-4.872959624806411	-429.5133870501645	-47.32333601557266	-26.0053500462523	-4.424866352952146	-1.80118589388453	-1.197375769421433	15.99233826716489	-0.04991689683712505	4.28639457780826	-3.980517809928669	14.65183818705324	14.65183818705435	3.453119438844848	-1.180134706137306	4.465393220819614	1.26643103059223	-5.178332549981728e-08	2.139402713563488e-06	-3.066721300410635e-07	2.894487688986883e-07	-7.801627703793837e-07	6.718761438729304e-07	2.969580127629485e-07
0.03	0.04953459034751541	0.1056130102949309	0.9031581136885767	0.1339982783337093	-0.3631082185268663	-0.2221379597918861	-0.2166737436722171	0.2123249176945505	0.2123249176946317	-0.1587187505395396	-0.1567422685102938	0.09254467012919981	0.08721393034424868	-0.1200452369424799	-0.05446025095144343	-0.03621961636819158	0.4794878486294719	-0.00323918992900622	0.1414722831574602	-0.13785746351228	0.461464602167945	0.4614646021679486	0.1053707184022613	-0.03172971791388439	0.1458711222754537	0.0395620238026213	0.1066392173564633	-0.04374964215079435	-0.004171959298105842	-0.2202844221010411	0.1393902040451937	-0.08080318611248623	-0.04660174115105073	14.49274518458397	32.87935678491771	-5.893085275389178	-4.114372713340659	-427.7400780731377	-44.84731252821084	-26.00470517042649	-3.933844306572365	-1.754772912196713	-1.18024657453001	15.1569248126393	-0.01831972875377314	4.452360395852838	-4.225422716821442	14.20801110401542	14.20801110401571	3.355269827024766	-0.8020698711976009	4.37628268013782	1.276358869879651	-4.6004419734031e-08	2.445799417619647e-06	-4.519101377153871e-07	3.199054228053038e-07	-8.162480732234698e-07	8.805091038478185e-07	3.463636275620697e-07
